<svg width="51" height="51" fill="none" xmlns="http://www.w3.org/2000/svg"><g clip-path="url(#clip0_2301_1045)"><path d="M25.03 50.66c13.807 0 25-11.193 25-25s-11.193-25-25-25-25 11.193-25 25 11.193 25 25 25z" fill="#4E6297"/><path d="M36.28 17.933c0-1.871-1.652-3.523-3.523-3.523H18.553c-1.871 0-3.523 1.652-3.523 3.523v14.204c0 1.872 1.652 3.523 3.523 3.523h7.157v-8.037h-2.642v-3.524h2.642v-1.431c0-2.422 1.762-4.514 3.964-4.514h2.862v3.523h-2.862c-.33 0-.66.33-.66.991v1.431h3.522v3.524h-3.523v8.037h3.744c1.871 0 3.523-1.651 3.523-3.523V17.933z" fill="#fff"/></g><defs><clipPath id="clip0_2301_1045"><path fill="#fff" transform="translate(.03 .66)" d="M0 0h50v50H0z"/></clipPath></defs></svg>