<svg width="50" height="51" fill="none" xmlns="http://www.w3.org/2000/svg"><g clip-path="url(#clip0_2301_1048)"><path d="M25 50.66c13.807 0 25-11.193 25-25s-11.193-25-25-25-25 11.193-25 25 11.193 25 25 25z" fill="url(#paint0_linear_2301_1048)"/><path d="M33.226 15.66H18.024c-1.716 0-3.024 1.308-3.024 3.024v15.202c0 1.716 1.308 3.024 3.024 3.024h15.202c1.716 0 3.024-1.307 3.024-3.024V18.684c0-1.716-1.308-3.024-3.024-3.024zm-7.601 17c3.514 0 6.375-2.779 6.375-6.13 0-.572-.082-1.226-.245-1.716h1.798v8.663a.819.819 0 01-.817.818H18.514a.819.819 0 01-.817-.818v-8.745h1.88a6.224 6.224 0 00-.245 1.717c-.082 3.432 2.779 6.211 6.293 6.211zm0-2.452c-2.288 0-4.087-1.798-4.087-4.005 0-2.206 1.799-4.004 4.087-4.004s4.087 1.798 4.087 4.004c0 2.289-1.799 4.005-4.087 4.005zm7.846-8.745c0 .49-.408.9-.899.9h-2.288a.91.91 0 01-.9-.9v-2.207c0-.49.41-.899.9-.899h2.288c.49 0 .9.409.9.9v2.206z" fill="#fff"/></g><defs><linearGradient id="paint0_linear_2301_1048" x1="10.625" y1="45.035" x2="43.75" y2="10.66" gradientUnits="userSpaceOnUse"><stop stop-color="#EEA054"/><stop offset=".503" stop-color="#D64763"/><stop offset="1" stop-color="#B62A99"/></linearGradient><clipPath id="clip0_2301_1048"><path fill="#fff" transform="translate(0 .66)" d="M0 0h50v50H0z"/></clipPath></defs></svg>