<svg width="20" height="20" fill="none" xmlns="http://www.w3.org/2000/svg"><g clip-path="url(#clip0_2301_679)"><path d="M17.97 19.03a.75.75 0 101.06-1.06l-1.06 1.06zM15.75 9A6.75 6.75 0 019 15.75v1.5A8.25 8.25 0 0017.25 9h-1.5zM9 15.75A6.75 6.75 0 012.25 9H.75A8.25 8.25 0 009 17.25v-1.5zM2.25 9A6.75 6.75 0 019 2.25V.75A8.25 8.25 0 00.75 9h1.5zM9 2.25A6.75 6.75 0 0115.75 9h1.5A8.25 8.25 0 009 .75v1.5zm10.03 15.72l-4.187-4.188-1.06 1.06 4.187 4.188 1.06-1.06z" fill="#fff"/></g><defs><clipPath id="clip0_2301_679"><path fill="#fff" transform="translate(.5 .5)" d="M0 0h19v19H0z"/></clipPath></defs></svg>