<svg width="51" height="51" fill="none" xmlns="http://www.w3.org/2000/svg"><g clip-path="url(#clip0_2301_1051)"><path d="M25.97 50.66c13.807 0 25-11.193 25-25s-11.193-25-25-25-25 11.193-25 25 11.193 25 25 25z" fill="#F40000"/><path d="M36.861 24.302c0-.485-.08-1.05-.08-1.697-.081-.647-.162-1.293-.243-1.859-.161-.646-.404-1.131-.889-1.535-.404-.404-.97-.647-1.535-.728-1.859-.242-4.606-.323-8.323-.323-3.718 0-6.546.081-8.323.323-.566.081-1.132.324-1.536.728a3.225 3.225 0 00-.889 1.535 6.478 6.478 0 00-.242 1.859c-.081.646-.081 1.212-.081 1.697v3.717c0 .485.08 1.05.08 1.697.082.646.162 1.293.243 1.858.162.647.404 1.132.89 1.536.403.404.969.646 1.535.727 1.858.242 4.605.323 8.323.323 3.717 0 6.545-.08 8.323-.323.566-.08 1.131-.323 1.535-.727.404-.404.728-.89.89-1.536a6.478 6.478 0 00.242-1.858c.08-.647.08-1.212.08-1.697v-3.717zm-6.787 2.505l-6.384 3.96a.617.617 0 01-.404.16c-.162 0-.243 0-.404-.08a.849.849 0 01-.404-.727v-8a.85.85 0 01.404-.728.734.734 0 01.808 0l6.383 3.96c.243.162.405.404.405.647 0 .242-.162.646-.405.808z" fill="#fff"/></g><defs><clipPath id="clip0_2301_1051"><path fill="#fff" transform="translate(.97 .66)" d="M0 0h50v50H0z"/></clipPath></defs></svg>